<?xml version="1.0" encoding="utf-8"?>
<!-- Generator: Adobe Illustrator 28.2.0, SVG Export Plug-In . SVG Version: 6.00 Build 0)  -->
<svg version="1.1" id="Layer_1" xmlns="http://www.w3.org/2000/svg" xmlns:xlink="http://www.w3.org/1999/xlink" x="0px" y="0px"
	 viewBox="0 0 1280 800" style="enable-background:new 0 0 1280 800;" xml:space="preserve">
<style type="text/css">
	.st0{fill:url(#SVGID_1_);}
	.st1{fill:#ED1B24;}
	.st2{fill:url(#SVGID_00000037665553261599158820000016375047609948079010_);}
	.st3{fill:url(#SVGID_00000011745542274463807630000008402424956727604923_);}
	.st4{fill:url(#SVGID_00000029032811049565775480000006149247746137599627_);}
	.st5{fill:#1867A9;}
	.st6{fill:#6CC1E8;}
</style>
<g>
	<linearGradient id="SVGID_1_" gradientUnits="userSpaceOnUse" x1="640" y1="439.1783" x2="640" y2="275.7372">
		<stop  offset="0" style="stop-color:#1867A9"/>
		<stop  offset="1" style="stop-color:#6CC1E8"/>
	</linearGradient>
	<path class="st0" d="M434.68,339.58c-3.31,21.36-18.28,34.47-38.93,34.54c-23.38,0.09-46.76,0.02-70.13,0.02c-2.45,0-4.9,0-7.91,0
		c-2.15,7.93-4.24,15.62-6.63,24.44c3.15,0,5.5,0,7.85,0c34.84,0,69.69,0.38,104.52-0.16c17.35-0.27,28.56,10.67,23,29.89
		c-0.93,3.23-1.83,6.47-2.92,10.31c-1.75,0.13-3.7,0.41-5.65,0.41c-52.15,0.02-104.3,0.02-156.45,0.02c-0.9,0-1.8-0.01-2.7-0.05
		c-14.96-0.59-23.66-10.59-20.38-25.06c3.86-17.05,8.4-33.99,13.68-50.65c4.43-13.96,19.24-23.97,33.54-24
		c41.58-0.09,83.17-0.03,124.76-0.02C431.65,339.27,432.97,339.45,434.68,339.58z M962.22,339.25c-39.32,0-78.66,0.47-117.97-0.23
		c-16.39-0.29-34.34,11.41-38.57,29.44c-3.22,13.75-6.86,27.42-10.94,40.94c-4.8,15.89,2.16,29.91,22.17,29.77
		c52.13-0.38,104.27-0.12,156.4-0.15c1.93,0,3.87-0.3,5.84-0.46c1.42-5.78,2.99-10.94,3.93-16.21c1.99-11.17-4.43-20.69-15.49-23.09
		c-2.82-0.61-5.8-0.65-8.7-0.65c-34.83-0.04-69.66-0.03-104.49-0.03c-2.42,0-4.83,0-7.87,0c2.3-8.57,4.38-16.31,6.56-24.44
		c2.79,0,5.23,0,7.67,0c23.37,0,46.74,0.04,70.11-0.01c21.08-0.05,35.86-12.96,39.3-34.87
		C967.12,339.25,964.67,339.25,962.22,339.25z M541.83,394.12c7.98-29.91,16.01-59.8,23.92-89.72c0.79-2.99,1.26-6.19,1.19-9.27
		c-0.2-9.42-5.7-16.2-14.91-18.25c-9.05-2.01-18.19-0.7-26.7-0.95c-0.71,1.08-0.89,1.25-0.94,1.45
		c-12.1,45.06-24.22,90.11-36.24,135.19c-0.68,2.56-0.88,5.32-0.85,7.98c0.09,10.21,6.75,17.36,16.91,18.27
		c2.68,0.24,5.39,0.23,8.09,0.23c49.01,0.01,98.03,0.01,147.04,0.01c2.22,0,4.44,0,7.2,0c1.45-5.67,3.31-10.97,4.09-16.43
		c2-13.94-6.37-23.5-20.52-24.02c-1.8-0.07-3.6-0.02-5.4-0.02c-31.93,0-63.85,0-95.78,0c-2.43,0-4.87,0-8.01,0
		C541.38,396.29,541.55,395.19,541.83,394.12z M700.96,438.59c16.9,0,32.74,0,48.8,0c14.54-54.28,28.99-108.18,43.54-162.52
		c-16.73,0-32.42,0-48.8,0C729.91,330.52,715.47,384.44,700.96,438.59z M478.91,275.88c-50.29,0-100.59,0-150.88,0
		c-2.02,0-4.04-0.03-6.06,0.06c-17.64,0.82-35.44,14.63-36.37,40.18c1.08,0.07,2.17,0.21,3.27,0.21
		c53.21,0.01,106.42,0.09,159.64-0.04c15.83-0.04,30.04-10.92,34.76-26.04c1.4-4.48,2.5-9.05,3.95-14.38
		C483.82,275.88,481.37,275.88,478.91,275.88z M1018.84,275.9c-53.22-0.02-106.45-0.04-159.67,0.01
		c-10.38,0.01-19.05,4.08-26.5,11.33c-8.08,7.85-10.23,18.03-12.51,28.74c1.88,0.14,3.4,0.36,4.92,0.36
		c52.78,0.02,105.55,0.01,158.33,0.02c11.55,0,20.66-4.98,28.24-13.4c6.81-7.56,8.44-17.09,10.7-26.69
		C1021.03,276.13,1019.93,275.9,1018.84,275.9z"/>
	<g>
		<path class="st1" d="M686.69,524.25c-7.28,0-14.56,0.05-21.83-0.03c-2.48-0.02-5.03-0.02-7.42-0.58
			c-6.85-1.6-9.89-6.19-8.75-13.19c1.72-10.56,3.52-21.1,5.47-31.61c1.76-9.48,7.61-14.91,18.05-15.22
			c16.64-0.49,33.32-0.21,49.97-0.05c2.4,0.02,4.89,0.9,7.17,1.81c3.91,1.56,6.28,4.54,5.84,8.9c-0.56,5.5-1.4,10.97-2.28,16.42
			c-1.01,6.22-2.11,12.43-3.32,18.62c-1.8,9.21-7.36,14.25-17.06,14.7c-8.6,0.39-17.23,0.08-25.84,0.08
			C686.69,524.15,686.69,524.2,686.69,524.25z M695.36,474.24c-6.12,0-12.23-0.03-18.35,0.01c-7.38,0.04-8.2,0.7-9.45,7.73
			c-1.51,8.44-2.98,16.89-4.47,25.34c-0.85,4.82,0.13,6.22,5.2,6.49c4.57,0.24,9.17,0.09,13.76,0.09c8.79,0,17.59,0.11,26.37-0.07
			c5.47-0.11,6.68-1.29,7.63-6.5c1.6-8.81,3.19-17.63,4.67-26.47c0.94-5.59,0.2-6.5-5.29-6.58
			C708.74,474.17,702.05,474.25,695.36,474.24z"/>
		<path class="st1" d="M565.46,463.85c-0.65,3.71-1.2,6.85-1.83,10.39c-2.5,0-4.57,0-6.65,0c-15.14,0-30.28-0.05-45.42,0.03
			c-5.91,0.03-7.34,1.62-8,7.35c-0.31,2.71,0.84,4.04,3.18,4.52c1.48,0.3,3.05,0.17,4.58,0.17c10.92,0.01,21.85-0.07,32.77,0.05
			c3.23,0.04,6.53,0.29,9.65,1.03c6.85,1.64,9.58,5.47,8.87,12.53c-0.42,4.17-1.17,8.37-2.37,12.37
			c-2.09,6.98-7.42,10.4-14.33,11.58c-1.88,0.32-3.82,0.35-5.73,0.35c-16.67,0.03-33.34,0.03-50.01,0c-1.67,0-3.35-0.22-5.63-0.38
			c0.47-3.35,0.88-6.29,1.39-9.95c2.27,0,4.32,0,6.36,0c14.37,0,28.74,0,43.12,0c1.53,0,3.07,0.05,4.6-0.04
			c5.28-0.31,6.04-0.98,7.23-6.16c2.3-10.05,1.97-10.47-8.16-10.47c-10.35,0-20.7,0.07-31.04-0.04c-3.24-0.04-6.52-0.31-9.69-0.96
			c-6.2-1.26-9.23-5.12-8.92-11.39c0.16-3.22,0.69-6.49,1.59-9.59c1.48-5.14,5.11-8.5,10.18-10.06c2.72-0.84,5.58-1.64,8.39-1.67
			c17.63-0.18,35.26-0.14,52.89-0.15C563.19,463.37,563.92,463.6,565.46,463.85z"/>
		<path class="st1" d="M983.44,463.85c-0.65,3.71-1.2,6.85-1.83,10.39c-2.5,0-4.57,0-6.65,0c-15.14,0-30.28-0.05-45.42,0.03
			c-5.91,0.03-7.34,1.62-8,7.35c-0.31,2.71,0.84,4.04,3.18,4.52c1.48,0.3,3.05,0.17,4.58,0.17c10.92,0.01,21.85-0.07,32.77,0.05
			c3.23,0.04,6.53,0.29,9.65,1.03c6.85,1.64,9.58,5.47,8.87,12.53c-0.42,4.17-1.17,8.37-2.37,12.37
			c-2.09,6.98-7.42,10.4-14.33,11.58c-1.88,0.32-3.82,0.35-5.73,0.35c-16.67,0.03-33.34,0.03-50.01,0c-1.67,0-3.35-0.22-5.63-0.38
			c0.47-3.35,0.88-6.29,1.39-9.95c2.27,0,4.32,0,6.36,0c14.37,0,28.74,0,43.12,0c1.53,0,3.07,0.05,4.6-0.04
			c5.28-0.31,6.04-0.98,7.23-6.16c2.3-10.05,1.97-10.47-8.16-10.47c-10.35,0-20.7,0.07-31.04-0.04c-3.24-0.04-6.52-0.31-9.69-0.96
			c-6.2-1.26-9.23-5.12-8.92-11.39c0.16-3.22,0.69-6.49,1.59-9.59c1.48-5.14,5.11-8.5,10.18-10.06c2.72-0.84,5.58-1.64,8.39-1.67
			c17.63-0.18,35.26-0.14,52.89-0.15C981.17,463.37,981.9,463.6,983.44,463.85z"/>
		<path class="st1" d="M801.51,498c2.61,8.35,5.31,16.98,8.12,25.96c-5.11,0-9.64,0-14.48,0c-2.42-7.41-4.74-14.66-7.15-21.88
			c-1.6-4.81-1.65-4.82-6.86-4.84c-8.02-0.03-16.04-0.01-24.53-0.01c-1.7,9.11-3.33,17.84-4.97,26.64c-4.78,0-9.09,0-13.8,0
			c3.59-20.3,7.1-40.17,10.66-60.27c1.63-0.1,2.93-0.25,4.23-0.26c16.09-0.01,32.17-0.06,48.26,0.05c3.22,0.02,6.53,0.34,9.63,1.15
			c6.51,1.7,8.98,5.54,8.47,12.31c-0.89,11.92-4.56,16.47-16.07,19.99C802.67,496.94,802.41,497.29,801.51,498z M758.49,486.4
			c14.03,0,27.19,0.1,40.34-0.06c4.18-0.05,6.09-3.02,5.88-8.09c-0.13-3.24-1.09-3.96-6.12-3.98c-11.47-0.06-22.94-0.03-34.41,0.01
			c-1.1,0-2.2,0.3-3.6,0.5C759.91,478.44,759.28,481.98,758.49,486.4z"/>
		<path class="st1" d="M585.6,502.2c-1.39,7.47-2.68,14.37-4.04,21.63c-4.52,0-8.82,0-13.8,0c3.51-19.98,6.99-39.81,10.55-60.11
			c1.69-0.13,3.35-0.36,5-0.37c14.95-0.03,29.9-0.09,44.85,0.04c3.6,0.03,7.29,0.37,10.78,1.22c5.65,1.37,8.2,4.61,7.85,10.35
			c-0.32,5.12-1.05,10.3-2.41,15.24c-2.02,7.37-8.48,11.6-17.78,11.87c-9.77,0.28-19.55,0.11-29.32,0.14
			C593.66,502.21,590.04,502.2,585.6,502.2z M587.65,490.95c2.57,0.14,4.43,0.32,6.28,0.32c8.79,0.03,17.58,0.04,26.37,0.01
			c9.7-0.04,10.44,1.36,12.14-10.36c0.84-5.77,0.3-6.62-5.77-6.66c-10.7-0.06-21.4-0.03-32.11,0.01c-1.28,0-2.57,0.31-4.2,0.51
			C589.48,480.13,588.61,485.29,587.65,490.95z"/>
		<path class="st1" d="M856.65,474.24c-10.95,0-21,0-31.57,0c0.65-3.89,1.18-7.03,1.76-10.52c25.37,0,50.56,0,76.54,0
			c-0.58,3.53-1.11,6.79-1.71,10.47c-10.25,0-20.16,0-30.82,0c-3.03,16.74-6.01,33.16-9.02,49.77c-4.65,0-8.79,0-13.85,0
			C850.85,507.51,853.65,491.45,856.65,474.24z"/>
	</g>
</g>
</svg>
